<mxfile host="65bd71144e">
    <diagram id="AukoiZNP9-t9ruXCX5ej" name="Page-1">
        <mxGraphModel dx="577" dy="371" grid="1" gridSize="10" guides="1" tooltips="1" connect="1" arrows="1" fold="1" page="1" pageScale="1" pageWidth="850" pageHeight="1100" math="0" shadow="0">
            <root>
                <mxCell id="0"/>
                <mxCell id="1" parent="0"/>
                <mxCell id="2" value="&lt;div&gt;&lt;b&gt;Frontend frameworks/libs /SPA&lt;/b&gt;&lt;/div&gt;&lt;div&gt;- Angular&lt;/div&gt;&lt;div&gt;- React&lt;/div&gt;&lt;div&gt;- Vue&lt;/div&gt;&lt;div&gt;- Svelte&lt;/div&gt;&lt;div&gt;- Solid&lt;/div&gt;&lt;div&gt;- Qwik&lt;/div&gt;&lt;div&gt;- Blazor&lt;/div&gt;&lt;div&gt;- Lit (Web Components)&lt;/div&gt;" style="text;html=1;align=left;verticalAlign=top;whiteSpace=wrap;rounded=0;" vertex="1" parent="1">
                    <mxGeometry x="20" y="10" width="140" height="170" as="geometry"/>
                </mxCell>
                <mxCell id="3" value="&lt;div&gt;&lt;b&gt;Utility libs&lt;/b&gt;&lt;/div&gt;&lt;div&gt;- jQuery ðŸ¤¢&lt;/div&gt;&lt;div&gt;- moment / date-fns / dayjs / temporal-polyfill / luxon&lt;/div&gt;&lt;div&gt;- lodash&lt;/div&gt;&lt;div&gt;- async&lt;/div&gt;" style="text;html=1;align=left;verticalAlign=top;whiteSpace=wrap;rounded=0;" vertex="1" parent="1">
                    <mxGeometry x="340" y="30" width="110" height="130" as="geometry"/>
                </mxCell>
                <mxCell id="4" value="&lt;div&gt;&lt;b&gt;Server-side rendering (SSR)&lt;/b&gt;&lt;/div&gt;&lt;div&gt;- meteen een gerenderde teruggeven&lt;/div&gt;&lt;div&gt;- op achtergrond stuur je alsnog alle JS op&lt;/div&gt;&lt;div&gt;- complementair aan de SPA&lt;/div&gt;&lt;div&gt;&lt;br&gt;&lt;/div&gt;&lt;div&gt;- Next.js (React)&lt;/div&gt;&lt;div&gt;- Nuxt.js (Vue)&lt;/div&gt;&lt;div&gt;- @angular/ssr&lt;/div&gt;&lt;div&gt;- SvelteKit&lt;/div&gt;&lt;div&gt;- SolidStart&lt;/div&gt;&lt;div&gt;- QwikCity&lt;/div&gt;&lt;div&gt;- ASP.NET Core&lt;/div&gt;" style="text;html=1;align=left;verticalAlign=top;whiteSpace=wrap;rounded=0;" vertex="1" parent="1">
                    <mxGeometry x="200" y="40" width="110" height="270" as="geometry"/>
                </mxCell>
                <mxCell id="5" value="&lt;div&gt;&lt;b&gt;Runtime/server-side&lt;/b&gt;&lt;/div&gt;&lt;div&gt;- Node.js&lt;/div&gt;&lt;div&gt;- Deno&lt;/div&gt;&lt;div&gt;- bun&lt;/div&gt;&lt;div&gt;- die ene die door Amazon AWS wordt gebruikt hot starts&lt;/div&gt;&lt;div&gt;&lt;br&gt;&lt;/div&gt;" style="text;html=1;align=left;verticalAlign=top;whiteSpace=wrap;rounded=0;" vertex="1" parent="1">
                    <mxGeometry x="350" y="150" width="140" height="170" as="geometry"/>
                </mxCell>
                <mxCell id="6" value="&lt;div&gt;&lt;b&gt;Unittesten&lt;/b&gt;&lt;/div&gt;&lt;div&gt;&lt;span style=&quot;background-color: transparent;&quot;&gt;- Jest (Meta =&amp;gt; OpenJS)&lt;/span&gt;&lt;/div&gt;&lt;div&gt;&lt;span style=&quot;background-color: transparent;&quot;&gt;- Vitest&amp;nbsp; Vite&lt;/span&gt;&lt;/div&gt;&lt;div&gt;&lt;span style=&quot;background-color: transparent;&quot;&gt;- Karma (deprecated)&lt;/span&gt;&lt;/div&gt;&lt;div&gt;&lt;span style=&quot;background-color: transparent;&quot;&gt;&amp;nbsp; - default voor Angular&lt;/span&gt;&lt;/div&gt;&lt;div&gt;&lt;span style=&quot;background-color: transparent;&quot;&gt;- Jasmine testframework&lt;/span&gt;&lt;/div&gt;&lt;div&gt;&lt;span style=&quot;background-color: transparent;&quot;&gt;- chai (assertion lib)&lt;/span&gt;&lt;/div&gt;&lt;div&gt;&lt;span style=&quot;background-color: transparent;&quot;&gt;- sinon&lt;/span&gt;&lt;/div&gt;&lt;div&gt;&lt;span style=&quot;background-color: transparent;&quot;&gt;- Mocha&lt;/span&gt;&lt;/div&gt;&lt;div&gt;&lt;span style=&quot;background-color: transparent;&quot;&gt;- Stryker.js&lt;/span&gt;&lt;/div&gt;&lt;div&gt;&lt;span style=&quot;background-color: transparent;&quot;&gt;&lt;br&gt;&lt;/span&gt;&lt;/div&gt;&lt;div&gt;&lt;span style=&quot;background-color: transparent;&quot;&gt;&lt;br&gt;&lt;/span&gt;&lt;/div&gt;" style="text;html=1;align=left;verticalAlign=top;whiteSpace=wrap;rounded=0;" vertex="1" parent="1">
                    <mxGeometry x="20" y="200" width="140" height="160" as="geometry"/>
                </mxCell>
                <mxCell id="7" value="&lt;div&gt;&lt;b&gt;End-to-end testen&lt;/b&gt;&lt;/div&gt;&lt;div&gt;&lt;span style=&quot;background-color: transparent;&quot;&gt;- Playwright (MIcrosoft)&lt;/span&gt;&lt;/div&gt;&lt;div&gt;&lt;span style=&quot;background-color: transparent;&quot;&gt;&amp;nbsp; - auto-waiting&lt;/span&gt;&lt;/div&gt;&lt;div&gt;&lt;span style=&quot;background-color: transparent;&quot;&gt;- Selenium (oudst)&lt;/span&gt;&lt;/div&gt;&lt;div&gt;&lt;span style=&quot;background-color: transparent;&quot;&gt;&amp;nbsp; - WebDriverWait&lt;/span&gt;&lt;/div&gt;&lt;div&gt;&lt;span style=&quot;background-color: transparent;&quot;&gt;- Cypress&lt;/span&gt;&lt;/div&gt;&lt;div&gt;&lt;span style=&quot;background-color: transparent;&quot;&gt;- Webdriver I/O&lt;/span&gt;&lt;/div&gt;&lt;div&gt;&lt;span style=&quot;background-color: transparent;&quot;&gt;- TestCafe&lt;/span&gt;&lt;/div&gt;&lt;div&gt;- Nightwatch&lt;/div&gt;&lt;div&gt;&lt;span style=&quot;background-color: transparent;&quot;&gt;&lt;br&gt;&lt;/span&gt;&lt;/div&gt;" style="text;html=1;align=left;verticalAlign=top;whiteSpace=wrap;rounded=0;" vertex="1" parent="1">
                    <mxGeometry x="30" y="370" width="140" height="170" as="geometry"/>
                </mxCell>
                <mxCell id="8" value="&lt;div&gt;&lt;b&gt;Build tools&lt;/b&gt;&lt;/div&gt;&lt;div&gt;&lt;span style=&quot;background-color: transparent;&quot;&gt;- grunt&lt;/span&gt;&lt;/div&gt;&lt;div&gt;- gulp&lt;/div&gt;&lt;div&gt;&lt;br&gt;&lt;/div&gt;&lt;div&gt;&lt;div&gt;&lt;b&gt;Module bundlers&lt;/b&gt;&lt;/div&gt;&lt;div&gt;- webpack&lt;br&gt;&amp;nbsp; - rspack&lt;/div&gt;&lt;div&gt;&lt;span style=&quot;background-color: transparent;&quot;&gt;- Rollup&lt;/span&gt;&lt;/div&gt;&lt;div&gt;&amp;nbsp; - Rolldown&lt;/div&gt;&lt;div&gt;- Vite&lt;/div&gt;&lt;/div&gt;" style="text;html=1;align=left;verticalAlign=top;whiteSpace=wrap;rounded=0;" vertex="1" parent="1">
                    <mxGeometry x="350" y="280" width="140" height="170" as="geometry"/>
                </mxCell>
                <mxCell id="9" value="&lt;div&gt;&lt;b&gt;Webframeworks&lt;/b&gt;&lt;/div&gt;&lt;div&gt;&lt;span style=&quot;background-color: transparent;&quot;&gt;- Express.js&lt;/span&gt;&lt;/div&gt;&lt;div&gt;&lt;span style=&quot;background-color: transparent;&quot;&gt;- Hapi&lt;/span&gt;&lt;/div&gt;&lt;div&gt;&lt;span style=&quot;background-color: transparent;&quot;&gt;- Fastapi&lt;/span&gt;&lt;/div&gt;&lt;div&gt;&lt;span style=&quot;background-color: transparent;&quot;&gt;- Nest.js&lt;/span&gt;&lt;/div&gt;&lt;div&gt;&lt;span style=&quot;background-color: transparent;&quot;&gt;&lt;br&gt;&lt;/span&gt;&lt;/div&gt;&lt;div&gt;&lt;span style=&quot;background-color: transparent;&quot;&gt;- @apollo/server (GraphQL)&lt;/span&gt;&lt;/div&gt;&lt;div&gt;&lt;span style=&quot;background-color: transparent;&quot;&gt;&lt;br&gt;&lt;/span&gt;&lt;/div&gt;" style="text;html=1;align=left;verticalAlign=top;whiteSpace=wrap;rounded=0;" vertex="1" parent="1">
                    <mxGeometry x="170" y="330" width="160" height="150" as="geometry"/>
                </mxCell>
                <mxCell id="10" value="&lt;div&gt;&lt;b&gt;Commercieel third-party testing tools&lt;/b&gt;&lt;/div&gt;&lt;div&gt;&lt;span style=&quot;background-color: transparent;&quot;&gt;- BrowserStack&lt;/span&gt;&lt;/div&gt;&lt;div&gt;&lt;span style=&quot;background-color: transparent;&quot;&gt;- Chromatic&lt;/span&gt;&lt;/div&gt;&lt;div&gt;&lt;span style=&quot;background-color: transparent;&quot;&gt;- Storybook&lt;/span&gt;&lt;/div&gt;" style="text;html=1;align=left;verticalAlign=top;whiteSpace=wrap;rounded=0;" vertex="1" parent="1">
                    <mxGeometry x="170" y="470" width="160" height="150" as="geometry"/>
                </mxCell>
            </root>
        </mxGraphModel>
    </diagram>
</mxfile>